<svg width="1080" height="1080" viewBox="0 0 1080 1080" fill="none" xmlns="http://www.w3.org/2000/svg">
<rect width="1080" height="1080" rx="200" fill="#002BFF"/>
<path d="M247.05 510.55C229.083 510.55 213.217 506.933 199.45 499.7C185.683 492.233 174.833 481.383 166.9 467.15C159.2 452.683 155.35 434.95 155.35 413.95C155.35 392.483 159.317 374.75 167.25 360.75C175.417 346.517 186.383 335.9 200.15 328.9C213.917 321.9 229.433 318.4 246.7 318.4C264.667 318.4 280.533 322.017 294.3 329.25C308.067 336.483 318.917 347.333 326.85 361.8C334.783 376.033 338.75 393.767 338.75 415C338.75 436.467 334.783 454.317 326.85 468.55C318.917 482.783 307.95 493.4 293.95 500.4C280.183 507.167 264.55 510.55 247.05 510.55ZM248.8 476.95C258.6 476.95 266.883 474.733 273.65 470.3C280.417 465.633 285.55 458.75 289.05 449.65C292.783 440.55 294.65 429.7 294.65 417.1C294.65 403.8 292.667 392.483 288.7 383.15C284.967 373.583 279.483 366.233 272.25 361.1C265.25 355.967 256.383 353.4 245.65 353.4C236.317 353.4 228.15 355.733 221.15 360.4C214.15 364.833 208.783 371.483 205.05 380.35C201.55 389.217 199.8 400.183 199.8 413.25C199.8 433.783 204.117 449.533 212.75 460.5C221.617 471.467 233.633 476.95 248.8 476.95ZM360.948 564.1V415.7V322.95H398.048L397.698 372.65L403.648 373C405.981 361.333 409.714 351.417 414.848 343.25C420.214 335.083 426.981 328.9 435.148 324.7C443.314 320.5 452.998 318.4 464.198 318.4C480.531 318.4 494.414 322.483 505.848 330.65C517.281 338.583 525.914 349.9 531.748 364.6C537.814 379.067 540.848 395.983 540.848 415.35C540.848 433.55 538.048 449.883 532.448 464.35C527.081 478.583 518.798 489.9 507.598 498.3C496.631 506.467 482.981 510.55 466.648 510.55C454.748 510.55 444.714 508.217 436.548 503.55C428.381 498.883 421.731 492.467 416.598 484.3C411.464 476.133 407.264 466.683 403.998 455.95H397.698C399.098 462.25 400.264 468.783 401.198 475.55C402.364 482.083 403.298 488.617 403.998 495.15C404.698 501.45 405.048 507.517 405.048 513.35V564.1H360.948ZM452.298 474.5C461.398 474.5 469.098 472.05 475.398 467.15C481.698 462.017 486.481 455.017 489.748 446.15C493.014 437.05 494.648 426.667 494.648 415C494.648 402.867 492.898 392.367 489.398 383.5C486.131 374.633 481.231 367.75 474.698 362.85C468.164 357.95 460.464 355.5 451.598 355.5C443.898 355.5 437.131 357.25 431.298 360.75C425.464 364.25 420.564 368.917 416.598 374.75C412.631 380.35 409.714 386.417 407.848 392.95C405.981 399.483 405.048 405.9 405.048 412.2V418.15C405.048 422.817 405.631 427.717 406.798 432.85C408.198 437.75 410.181 442.767 412.748 447.9C415.314 452.8 418.464 457.35 422.198 461.55C425.931 465.517 430.364 468.667 435.498 471C440.631 473.333 446.231 474.5 452.298 474.5ZM646.165 510.55C631.465 510.55 618.282 508.45 606.615 504.25C595.182 500.05 585.498 493.983 577.565 486.05C569.632 477.883 563.565 468.083 559.365 456.65C555.165 445.217 553.065 432.267 553.065 417.8C553.065 403.333 555.048 390.033 559.015 377.9C563.215 365.767 569.165 355.267 576.865 346.4C584.565 337.533 593.898 330.65 604.865 325.75C616.065 320.85 628.782 318.4 643.015 318.4C656.315 318.4 668.215 320.617 678.715 325.05C689.215 329.483 698.082 336.133 705.315 345C712.548 353.633 717.915 364.483 721.415 377.55C724.915 390.383 726.082 405.317 724.915 422.35L581.765 423.4V397.85L699.365 396.8L683.965 411.15C685.365 397.85 684.315 387 680.815 378.6C677.315 369.967 672.298 363.667 665.765 359.7C659.232 355.5 651.765 353.4 643.365 353.4C633.798 353.4 625.398 355.967 618.165 361.1C610.932 366 605.332 373.233 601.365 382.8C597.632 392.133 595.765 403.567 595.765 417.1C595.765 437.4 600.198 452.567 609.065 462.6C618.165 472.633 630.532 477.65 646.165 477.65C653.165 477.65 658.998 476.833 663.665 475.2C668.565 473.333 672.648 471 675.915 468.2C679.182 465.167 681.748 461.783 683.615 458.05C685.715 454.317 687.348 450.35 688.515 446.15L727.015 454.9C725.148 463.533 722.115 471.233 717.915 478C713.715 484.767 708.232 490.6 701.465 495.5C694.932 500.4 687.115 504.133 678.015 506.7C668.915 509.267 658.298 510.55 646.165 510.55ZM747.725 506V394.35V322.95H784.475L783.425 378.95H789.725C792.992 365.183 797.308 353.867 802.675 345C808.275 336.133 815.392 329.483 824.025 325.05C832.658 320.617 842.692 318.4 854.125 318.4C874.892 318.4 890.642 325.75 901.375 340.45C912.342 355.15 917.825 377.9 917.825 408.7V506H873.375V413.25C873.375 393.417 870.342 378.95 864.275 369.85C858.442 360.517 849.692 355.85 838.025 355.85C828.225 355.85 819.942 359 813.175 365.3C806.408 371.367 801.158 379.533 797.425 389.8C793.925 399.833 792.058 410.917 791.825 423.05V506H747.725ZM179.85 805V683.9H149.4V650.65L197.35 653.1V646.8C190.117 644.7 184.05 641.667 179.15 637.7C174.25 633.5 170.633 628.6 168.3 623C166.2 617.4 165.15 611.333 165.15 604.8C165.15 594.767 167.6 586.133 172.5 578.9C177.4 571.667 184.283 566.067 193.15 562.1C202.017 557.9 212.517 555.8 224.65 555.8C234.683 555.8 243.783 557.083 251.95 559.65C260.35 562.217 267.117 565.367 272.25 569.1L268.75 609.7C263.617 605.5 257.667 602.233 250.9 599.9C244.133 597.333 237.6 596.05 231.3 596.05C224.067 596.05 218.117 598.15 213.45 602.35C208.783 606.317 206.45 612.85 206.45 621.95C206.45 627.783 207.5 632.567 209.6 636.3C211.7 639.8 214.383 642.6 217.65 644.7C221.15 646.567 224.533 647.967 227.8 648.9H270.5V683.9H222.9V805H179.85ZM365.927 809.55C347.96 809.55 332.094 805.933 318.327 798.7C304.56 791.233 293.71 780.383 285.777 766.15C278.077 751.683 274.227 733.95 274.227 712.95C274.227 691.483 278.194 673.75 286.127 659.75C294.294 645.517 305.26 634.9 319.027 627.9C332.794 620.9 348.31 617.4 365.577 617.4C383.544 617.4 399.41 621.017 413.177 628.25C426.944 635.483 437.794 646.333 445.727 660.8C453.66 675.033 457.627 692.767 457.627 714C457.627 735.467 453.66 753.317 445.727 767.55C437.794 781.783 426.827 792.4 412.827 799.4C399.06 806.167 383.427 809.55 365.927 809.55ZM367.677 775.95C377.477 775.95 385.76 773.733 392.527 769.3C399.294 764.633 404.427 757.75 407.927 748.65C411.66 739.55 413.527 728.7 413.527 716.1C413.527 702.8 411.544 691.483 407.577 682.15C403.844 672.583 398.36 665.233 391.127 660.1C384.127 654.967 375.26 652.4 364.527 652.4C355.194 652.4 347.027 654.733 340.027 659.4C333.027 663.833 327.66 670.483 323.927 679.35C320.427 688.217 318.677 699.183 318.677 712.25C318.677 732.783 322.994 748.533 331.627 759.5C340.494 770.467 352.51 775.95 367.677 775.95ZM479.825 805V556.5H523.225V805H479.825ZM555.293 805V621.95H599.393V805H555.293ZM577.343 593.25C568.477 593.25 561.593 591.383 556.693 587.65C552.027 583.683 549.693 578.083 549.693 570.85C549.693 563.617 552.027 558.133 556.693 554.4C561.593 550.433 568.477 548.45 577.343 548.45C586.677 548.45 593.677 550.317 598.343 554.05C603.01 557.783 605.343 563.383 605.343 570.85C605.343 578.083 602.893 583.683 597.993 587.65C593.327 591.383 586.443 593.25 577.343 593.25ZM712.646 809.55C694.679 809.55 678.812 805.933 665.046 798.7C651.279 791.233 640.429 780.383 632.496 766.15C624.796 751.683 620.946 733.95 620.946 712.95C620.946 691.483 624.912 673.75 632.846 659.75C641.012 645.517 651.979 634.9 665.746 627.9C679.512 620.9 695.029 617.4 712.296 617.4C730.262 617.4 746.129 621.017 759.896 628.25C773.662 635.483 784.512 646.333 792.446 660.8C800.379 675.033 804.346 692.767 804.346 714C804.346 735.467 800.379 753.317 792.446 767.55C784.512 781.783 773.546 792.4 759.546 799.4C745.779 806.167 730.146 809.55 712.646 809.55ZM714.396 775.95C724.196 775.95 732.479 773.733 739.246 769.3C746.012 764.633 751.146 757.75 754.646 748.65C758.379 739.55 760.246 728.7 760.246 716.1C760.246 702.8 758.262 691.483 754.296 682.15C750.562 672.583 745.079 665.233 737.846 660.1C730.846 654.967 721.979 652.4 711.246 652.4C701.912 652.4 693.746 654.733 686.746 659.4C679.746 663.833 674.379 670.483 670.646 679.35C667.146 688.217 665.396 699.183 665.396 712.25C665.396 732.783 669.712 748.533 678.346 759.5C687.212 770.467 699.229 775.95 714.396 775.95ZM837.084 809.2C827.518 809.2 820.284 807.1 815.384 802.9C810.484 798.7 808.034 792.167 808.034 783.3C808.034 774.2 810.484 767.55 815.384 763.35C820.284 759.15 827.518 757.05 837.084 757.05C847.118 757.05 854.584 759.15 859.484 763.35C864.618 767.55 867.184 774.2 867.184 783.3C867.184 800.567 857.151 809.2 837.084 809.2Z" fill="white"/>
</svg>
